<svg width="300" height="300" viewBox="0 0 300 300" fill="none" xmlns="http://www.w3.org/2000/svg">
<circle cx="150" cy="150" r="150" fill="#4500A6"/>
<path d="M150.2 120.77C148.62 120.77 147.393 120.063 146.52 118.65C145.653 117.243 145.653 115.833 146.52 114.42L172.89 68.48C173.837 66.9533 175.053 65.9833 176.54 65.57C178.027 65.15 179.55 65.2033 181.11 65.73C192.23 69.7433 202.303 75.99 211.33 84.47C220.357 92.95 227.35 102.767 232.31 113.92C233.143 115.833 233.113 117.453 232.22 118.78C231.333 120.107 229.85 120.77 227.77 120.77H150.2ZM117.33 136.48L90.79 89.68C89.8433 88.1467 89.5733 86.5533 89.98 84.9C90.3933 83.2467 91.2133 81.9467 92.44 81C100.44 74.3067 109.38 69.1333 119.26 65.48C129.14 61.8267 139.387 60 150 60C151.6 60 153.39 60.06 155.37 60.18C157.343 60.3067 159.2 60.4733 160.94 60.68C162.893 60.88 164.243 61.6833 164.99 63.09C165.743 64.5033 165.6 66.1467 164.56 68.02L124.73 136.48C123.863 137.893 122.63 138.6 121.03 138.6C119.43 138.6 118.197 137.893 117.33 136.48ZM67.93 171.16C66.4767 171.16 65.13 170.627 63.89 169.56C62.65 168.493 61.86 167.243 61.52 165.81C60.9333 162.95 60.5333 160.243 60.32 157.69C60.1067 155.137 60 152.573 60 150C60 140.653 61.4833 131.477 64.45 122.47C67.4233 113.47 71.7867 104.877 77.54 96.69C78.86 95.0033 80.3767 94.16 82.09 94.16C83.8033 94.16 85.1967 95.15 86.27 97.13L124.81 164.81C125.677 166.217 125.667 167.627 124.78 169.04C123.887 170.453 122.653 171.16 121.08 171.16H67.93ZM119.85 234.66C108.21 230.473 97.71 224.023 88.35 215.31C78.9833 206.59 71.9667 196.653 67.3 185.5C66.4667 183.587 66.5367 181.967 67.51 180.64C68.4833 179.313 70.01 178.65 72.09 178.65H151.09C152.663 178.65 153.853 179.357 154.66 180.77C155.467 182.177 155.433 183.587 154.56 185L128.13 231.79C127.177 233.317 125.957 234.317 124.47 234.79C122.983 235.263 121.45 235.22 119.85 234.66ZM150 240C148.433 240 146.77 239.94 145.01 239.82C143.25 239.7 141.607 239.533 140.08 239.32C138.133 238.987 136.773 238.12 136 236.72C135.233 235.3 135.367 233.72 136.4 231.98L175.92 164.78C176.793 163.38 178.077 162.68 179.77 162.68C181.463 162.68 182.747 163.38 183.62 164.78L209.46 210.08C210.373 211.527 210.653 213.077 210.3 214.73C209.947 216.383 209.113 217.743 207.8 218.81C199.88 225.503 190.923 230.707 180.93 234.42C170.937 238.133 160.627 239.993 150 240ZM213.9 202.98L175.25 134.81C174.383 133.397 174.36 131.987 175.18 130.58C176 129.173 177.2 128.467 178.78 128.46H232.08C233.527 128.46 234.873 128.99 236.12 130.05C237.36 131.11 238.147 132.363 238.48 133.81C238.947 136.543 239.313 139.247 239.58 141.92C239.86 144.6 240 147.293 240 150C240 159.733 238.547 169.027 235.64 177.88C232.74 186.727 228.347 195.22 222.46 203.36C221.26 204.94 219.793 205.74 218.06 205.76C216.327 205.78 214.94 204.853 213.9 202.98Z" fill="white"/>
</svg>
