<svg width="300" height="300" viewBox="0 0 300 300" fill="none" xmlns="http://www.w3.org/2000/svg">
<path fill-rule="evenodd" clip-rule="evenodd" d="M150 300C232.843 300 300 232.843 300 150C300 67.1573 232.843 0 150 0C67.1573 0 0 67.1573 0 150C0 232.843 67.1573 300 150 300ZM146.52 118.65C147.393 120.063 148.62 120.77 150.2 120.77H227.77C229.85 120.77 231.333 120.107 232.22 118.78C233.113 117.453 233.143 115.833 232.31 113.92C227.35 102.767 220.357 92.95 211.33 84.47C202.303 75.99 192.23 69.7433 181.11 65.73C179.55 65.2033 178.027 65.15 176.54 65.57C175.053 65.9833 173.837 66.9533 172.89 68.48L146.52 114.42C145.653 115.833 145.653 117.243 146.52 118.65ZM90.79 89.68L117.33 136.48C118.197 137.893 119.43 138.6 121.03 138.6C122.63 138.6 123.863 137.893 124.73 136.48L164.56 68.02C165.6 66.1467 165.743 64.5033 164.99 63.09C164.243 61.6833 162.893 60.88 160.94 60.68C159.2 60.4733 157.343 60.3067 155.37 60.18C153.39 60.06 151.6 60 150 60C139.387 60 129.14 61.8267 119.26 65.48C109.38 69.1333 100.44 74.3067 92.44 81C91.2133 81.9467 90.3933 83.2467 89.98 84.9C89.5733 86.5533 89.8433 88.1467 90.79 89.68ZM63.89 169.56C65.13 170.627 66.4767 171.16 67.93 171.16H121.08C122.653 171.16 123.887 170.453 124.78 169.04C125.667 167.627 125.677 166.217 124.81 164.81L86.27 97.13C85.1967 95.15 83.8033 94.16 82.09 94.16C80.3767 94.16 78.86 95.0033 77.54 96.69C71.7867 104.877 67.4233 113.47 64.45 122.47C61.4833 131.477 60 140.653 60 150C60 152.573 60.1067 155.137 60.32 157.69C60.5333 160.243 60.9333 162.95 61.52 165.81C61.86 167.243 62.65 168.493 63.89 169.56ZM88.35 215.31C97.71 224.023 108.21 230.473 119.85 234.66C121.45 235.22 122.983 235.263 124.47 234.79C125.957 234.317 127.177 233.317 128.13 231.79L154.56 185C155.433 183.587 155.467 182.177 154.66 180.77C153.853 179.357 152.663 178.65 151.09 178.65H72.09C70.01 178.65 68.4833 179.313 67.51 180.64C66.5367 181.967 66.4667 183.587 67.3 185.5C71.9667 196.653 78.9833 206.59 88.35 215.31ZM145.01 239.82C146.77 239.94 148.433 240 150 240C160.627 239.993 170.937 238.133 180.93 234.42C190.923 230.707 199.88 225.503 207.8 218.81C209.113 217.743 209.947 216.383 210.3 214.73C210.653 213.077 210.373 211.527 209.46 210.08L183.62 164.78C182.747 163.38 181.463 162.68 179.77 162.68C178.077 162.68 176.793 163.38 175.92 164.78L136.4 231.98C135.367 233.72 135.233 235.3 136 236.72C136.773 238.12 138.133 238.987 140.08 239.32C141.607 239.533 143.25 239.7 145.01 239.82ZM175.25 134.81L213.9 202.98C214.94 204.853 216.327 205.78 218.06 205.76C219.793 205.74 221.26 204.94 222.46 203.36C228.347 195.22 232.74 186.727 235.64 177.88C238.547 169.027 240 159.733 240 150C240 147.293 239.86 144.6 239.58 141.92C239.313 139.247 238.947 136.543 238.48 133.81C238.147 132.363 237.36 131.11 236.12 130.05C234.873 128.99 233.527 128.46 232.08 128.46H178.78C177.2 128.467 176 129.173 175.18 130.58C174.36 131.987 174.383 133.397 175.25 134.81Z" fill="#5608C2"/>
</svg>
